<?xml version="1.0" encoding="utf-8"?>
<!-- Generator: Adobe Illustrator 20.1.0, SVG Export Plug-In . SVG Version: 6.00 Build 0)  -->
<svg version="1.1" id="Layer_1" xmlns="http://www.w3.org/2000/svg" xmlns:xlink="http://www.w3.org/1999/xlink" x="0px" y="0px"
	 viewBox="0 0 512 512" style="enable-background:new 0 0 512 512;" xml:space="preserve">
<style type="text/css">
	.st0{fill:#F2F2F2;}
</style>
<path class="st0" d="M497.1,240.8c-1.2-3.3-3.2-8.8-7.3-14.4c-12.8-17.2-35.4-49-45.2-62.7c-10.5-14.8-21.3-19.8-30.8-24.1
	c-1.7-0.7-3.3-1.5-5.1-2.3c-12.6-6.2-33.8-7.3-39.1-7.5l-104.2,5.4c-0.7,0-1.3,0.1-2,0.2l-87.9-122c-6.9-9.1-19.7-9.1-26.8-3.4
	L26.8,107.6c-9.5,7.3-8.7,19.1-4.3,25.6l161.4,224c5.1,6.8,17.7,11.6,28,4.1l20.2-16.2c8.2,11.5,16.8,23.4,25.2,35.2
	c26.1,36.4,52.2,72.8,72.3,100.8c7.5,10.4,25.1,22.5,45.8,24.4c3.1,0.3,6.3,0.4,9.6,0.4c17.9,0,36-4.9,57.3-15.4
	c48.5-23.9,52.2-58.1,57.3-105.2l1.6-15C508.7,306.8,507.5,266.1,497.1,240.8z M473.2,366.8l-1.7,15.2c-5,45.7-7,64.6-41.2,81.6
	c-17.4,8.6-31.7,12.6-45.2,12.6c-2.5,0-4.9-0.1-7.2-0.3c-12.5-1.2-23-8.9-25.8-12.8c-20.2-27.9-46.2-64.3-72.2-100.7
	c-27.1-37.8-54.2-75.5-74.4-103.8l-0.7-1c-1.8-2.8-3.1-5.8-3.9-9.1c-2-7.7-1-15.8,2.8-22.7s9.9-11.8,17.3-14
	c2.4-0.6,4.9-1.1,7.3-1.1c8.8,0,17.4,4.5,22.8,12.2l41.7,55.8c2.3,3.2,5.6,5.2,9.4,5.7c3.7,0.4,7.5-0.5,10.5-3l20.9-16.9
	c1.1-1,2.2-2,3-3.3c1.3-2,7.5-12.4,5-26.2c-1.5-8.3-8.2-16.8-10.1-19.1l-38.1-52.5l76.5-4c7.9,0.3,21.5,1.9,26.9,4.7
	c2,1,3.9,1.9,5.9,2.8c8,3.7,13.4,6.1,19.4,14.6c9.8,14,32.7,45.8,45.5,63.3c1.5,2,2.4,4.5,3.2,6.7l1,2.6
	C476.9,266.8,481.4,296.4,473.2,366.8z M136.7,491.9c-58.5,1.5-112.5-40.2-127-102.6c-6.3-27.3-4.4-55.6,5.5-81.9
	c3.2-8.5,12.3-12.7,20.5-9.3c8,3.4,11.9,13,8.7,21.6c-7.5,19.8-8.9,41.2-4.1,61.7c12.6,54.4,64.9,87.8,116.5,74.5
	c8.4-2.1,17,3.3,19.1,12.2c2.1,8.9-3.1,17.9-11.5,20C155,490.4,145.9,491.7,136.7,491.9z M156.8,418.9
	c-36.1,0.8-69.3-24.6-78.2-63.2c-3.8-16.6-2.7-33.9,3.2-49.9c3.2-8.5,12.3-12.7,20.4-9.4c8.1,3.4,12,12.9,8.9,21.5
	c-3.6,9.6-4.2,20-2,29.9c6.2,26.7,31.8,43.1,57.1,36.5c8.4-2.1,17,3.3,19,12.2c2.1,8.9-3.1,17.9-11.5,20
	C168,418,162.4,418.7,156.8,418.9z"/>
</svg>
