<?xml version="1.0" encoding="utf-8"?>
<!-- Generator: Adobe Illustrator 20.1.0, SVG Export Plug-In . SVG Version: 6.00 Build 0)  -->
<svg version="1.1" id="Layer_1" xmlns="http://www.w3.org/2000/svg" xmlns:xlink="http://www.w3.org/1999/xlink" x="0px" y="0px"
	 viewBox="0 0 512 512" style="enable-background:new 0 0 512 512;" xml:space="preserve">
<style type="text/css">
	.st0{fill:#B2B1B2;}
	.st1{fill:#65BA62;}
</style>
<g>
	<path class="st0" d="M154.6,441.5c-52.8,12.8-105.9-19.5-119-72.1c-4.9-19.9-3.4-40.7,4.2-59.7c3.3-8.2-0.7-17.6-9-20.9
		c-8.2-3.3-17.6,0.7-20.9,9C-0.3,323-2.2,350.8,4.3,377.1c17.3,69.9,87.8,112.6,157.8,95.7c8.6-2.1,13.9-10.8,11.8-19.5
		C171.9,444.7,163.2,439.4,154.6,441.5L154.6,441.5L154.6,441.5z"/>
	<path class="st0" d="M164.3,372.2c-25.9,6.3-52-9.5-58.3-35.3c-2.4-9.6-1.6-19.8,2-29c3.2-8.3-0.8-17.6-9.1-20.8
		s-17.6,0.8-20.8,9.1l0,0c-6.1,15.4-7.3,32.3-3.3,48.3c10.6,43,54.1,69.3,97.1,58.8c8.6-2.1,13.9-10.8,11.8-19.4
		C181.6,375.3,172.9,370.1,164.3,372.2L164.3,372.2z M281.9,353l-1.5-2c-27.7-36.5-55.3-73.1-76.1-100.4l-0.7-0.9
		c-1.8-2.7-3.2-5.6-4-8.8c-2-7.4-1-15.4,2.9-22c5.1-9,14.7-14.6,25.1-14.5c9.1,0,17.7,4.4,23.3,11.8l42.7,54
		c4.9,6.4,14,7.6,20.4,2.7l21.3-16.4c1.2-0.9,2.2-2,3-3.2c5-7.5,6.8-16.6,5.1-25.4c-1.6-8-8.4-16.3-10.4-18.5l-39-50.8l78.3-3.9
		c8.1,0.3,21.9,1.9,27.5,4.5c2,0.9,4,1.8,6,2.7c8.3,3.5,13.7,5.9,19.8,14.1c10.1,13.5,33.4,44.3,46.6,61.2c1.5,2,2.4,4.4,3.3,6.5
		l1.1,2.6c3,6.8,5.6,19.1,6,40c10.6,6.6,20.2,14.5,28.6,23.7c1.6-34.5-1.1-59.4-8.6-76.6c-1.8-5-4.3-9.7-7.5-14
		c-15.6-20.1-31-40.3-46.2-60.7c-10.8-14.4-21.8-19.2-31.5-23.4c-1.7-0.7-3.5-1.5-5.2-2.3c-12.9-6.1-34.6-7.1-40-7.2l-106.5,5.2
		c-0.7,0-1.4,0.1-2,0.2L173.7,13.1c-7-8.8-20.1-8.8-27.4-3.3L21.9,104.4c-8,5.5-10.1,16.6-4.5,24.6c0,0.1,0.1,0.1,0.1,0.2L182.4,346
		c5.3,6.5,18.1,11.3,28.6,4l20.6-15.6c8.5,11.2,17.1,22.7,25.8,34l15.8,20.9C274.3,376.8,277.3,364.6,281.9,353L281.9,353z"/>
	<path class="st1" d="M469.1,376.2l-66.7,66.7c-3.7,3.6-9.6,3.6-13.2,0l-38.4-38.3c-3.7-3.7-3.7-9.6,0-13.3c3.7-3.7,9.6-3.7,13.3,0
		l0,0l31.8,31.9l60.2-60.1c3.7-3.6,9.6-3.6,13.2,0C472.8,366.6,472.7,372.5,469.1,376.2L469.1,376.2z M409.9,299.8
		c-57-1.7-104.5,42.9-106.3,99.8c-1.7,56.9,43,104.4,99.9,106.2c2.1,0.1,4.2,0.1,6.3,0c57-1.7,101.7-49.3,99.9-106.2
		C508.3,345.3,464.4,301.5,409.9,299.8z"/>
</g>
</svg>
